<?xml version="1.0" encoding="UTF-8" standalone="no"?>
<svg
   xmlns:dc="http://purl.org/dc/elements/1.1/"
   xmlns:cc="http://creativecommons.org/ns#"
   xmlns:rdf="http://www.w3.org/1999/02/22-rdf-syntax-ns#"
   xmlns:svg="http://www.w3.org/2000/svg"
   xmlns="http://www.w3.org/2000/svg"
   xmlns:sodipodi="http://sodipodi.sourceforge.net/DTD/sodipodi-0.dtd"
   xmlns:inkscape="http://www.inkscape.org/namespaces/inkscape"
   fill="#000000"
   height="24"
   viewBox="0 0 24 24"
   width="24"
   id="svg2"
   version="1.1"
   inkscape:version="0.91 r13725"
   sodipodi:docname="shortcut_store.svg">
  <metadata
     id="metadata12">
    <rdf:RDF>
      <cc:Work
         rdf:about="">
        <dc:format>image/svg+xml</dc:format>
        <dc:type
           rdf:resource="http://purl.org/dc/dcmitype/StillImage" />
        <dc:title></dc:title>
      </cc:Work>
    </rdf:RDF>
  </metadata>
  <defs
     id="defs10" />
  <sodipodi:namedview
     pagecolor="#ffffff"
     bordercolor="#666666"
     borderopacity="1"
     objecttolerance="10"
     gridtolerance="10"
     guidetolerance="10"
     inkscape:pageopacity="0"
     inkscape:pageshadow="2"
     inkscape:window-width="727"
     inkscape:window-height="480"
     id="namedview8"
     showgrid="false"
     inkscape:zoom="9.8333333"
     inkscape:cx="12"
     inkscape:cy="16.067797"
     inkscape:window-x="0"
     inkscape:window-y="0"
     inkscape:window-maximized="0"
     inkscape:current-layer="layer2" />
  <path
     d="M0 0h24v24H0z"
     fill="none"
     id="path6" />
  <g
     inkscape:groupmode="layer"
     id="layer3"
     inkscape:label="Layer 2">
    <circle
       style="fill:#f5f5f5;fill-opacity:1"
       id="path4164"
       cx="12"
       cy="12"
       r="12" />
  </g>
  <g
     inkscape:groupmode="layer"
     id="layer2"
     inkscape:label="Layer 1"
     style="display:inline">
    <path
       d="m 9.379661,16.59661 c -0.7532203,0 -1.362644,0.689492 -1.362644,1.532204 0,0.842711 0.6094237,1.532203 1.362644,1.532203 0.75322,0 1.369492,-0.689492 1.369492,-1.532203 0,-0.842712 -0.616272,-1.532204 -1.369492,-1.532204 z M 5.2711865,4.3389831 l 0,1.5322033 1.3694915,0 2.4650847,5.8147116 -0.9244067,1.876949 c -0.1095594,0.214509 -0.1711865,0.467322 -0.1711865,0.735458 0,0.842712 0.6162712,1.532203 1.3694915,1.532203 l 8.216949,0 0,-1.532203 -7.9293557,0 c -0.095864,0 -0.1711865,-0.08427 -0.1711865,-0.191525 l 0.020542,-0.09193 0.6162712,-1.248745 5.101356,0 c 0.51356,0 0.965492,-0.314102 1.198305,-0.789085 l 2.45139,-4.972 c 0.05478,-0.107254 0.08217,-0.237492 0.08217,-0.367729 0,-0.421356 -0.308136,-0.7661016 -0.684746,-0.7661016 l -10.1273903,0 -0.643661,-1.5322033 -2.2391186,0 z M 16.227119,16.59661 c -0.753221,0 -1.362644,0.689492 -1.362644,1.532204 0,0.842711 0.609423,1.532203 1.362644,1.532203 0.75322,0 1.369491,-0.689492 1.369491,-1.532203 0,-0.842712 -0.616271,-1.532204 -1.369491,-1.532204 z"
       id="path4"
       inkscape:connector-curvature="0" />
  </g>
</svg>
